<mxfile host="app.diagrams.net" modified="2024-06-05T09:43:10.288Z" agent="Mozilla/5.0 (Windows NT 10.0; Win64; x64) AppleWebKit/537.36 (KHTML, like Gecko) Chrome/125.0.0.0 Safari/537.36" etag="_k8hoxq2tX4zwKaDwEEu" version="24.4.7" type="device">
  <diagram name="Seite-1" id="uqGCCNN3jYTd-kQmsEYR">
    <mxGraphModel dx="1195" dy="715" grid="1" gridSize="10" guides="1" tooltips="1" connect="1" arrows="1" fold="1" page="1" pageScale="1" pageWidth="827" pageHeight="1169" math="0" shadow="0">
      <root>
        <mxCell id="0" />
        <mxCell id="1" parent="0" />
        <mxCell id="b1SX6c5tiu6r0ZHG3ixj-16" value="" style="rounded=1;whiteSpace=wrap;html=1;" vertex="1" parent="1">
          <mxGeometry x="610" y="350" width="210" height="130" as="geometry" />
        </mxCell>
        <mxCell id="b1SX6c5tiu6r0ZHG3ixj-15" value="" style="rounded=1;whiteSpace=wrap;html=1;" vertex="1" parent="1">
          <mxGeometry x="10" y="350" width="210" height="130" as="geometry" />
        </mxCell>
        <mxCell id="b1SX6c5tiu6r0ZHG3ixj-2" value="" style="image;aspect=fixed;perimeter=ellipsePerimeter;html=1;align=center;shadow=0;dashed=0;spacingTop=3;image=img/lib/active_directory/generic_server.svg;" vertex="1" parent="1">
          <mxGeometry x="590" y="370" width="50.4" height="90" as="geometry" />
        </mxCell>
        <mxCell id="b1SX6c5tiu6r0ZHG3ixj-1" value="" style="image;aspect=fixed;perimeter=ellipsePerimeter;html=1;align=center;shadow=0;dashed=0;spacingTop=3;image=img/lib/active_directory/laptop_client.svg;" vertex="1" parent="1">
          <mxGeometry x="60" y="370" width="81" height="90" as="geometry" />
        </mxCell>
        <mxCell id="b1SX6c5tiu6r0ZHG3ixj-3" value="" style="image;aspect=fixed;perimeter=ellipsePerimeter;html=1;align=center;shadow=0;dashed=0;spacingTop=3;image=img/lib/active_directory/internet_cloud.svg;" vertex="1" parent="1">
          <mxGeometry x="290" y="350" width="206.36" height="130" as="geometry" />
        </mxCell>
        <mxCell id="b1SX6c5tiu6r0ZHG3ixj-18" value="&lt;font style=&quot;font-size: 14px;&quot;&gt;&lt;b&gt;VPN Gateway&lt;/b&gt;&lt;/font&gt;&lt;div&gt;&lt;font style=&quot;font-size: 14px;&quot;&gt;&lt;span style=&quot;font-size: 12px;&quot;&gt;wghost16&lt;/span&gt;&lt;div style=&quot;font-size: 12px;&quot;&gt;192.168.5.116/24&lt;/div&gt;&lt;/font&gt;&lt;/div&gt;" style="rounded=0;whiteSpace=wrap;html=1;" vertex="1" parent="1">
          <mxGeometry x="560" y="470" width="110" height="50" as="geometry" />
        </mxCell>
        <mxCell id="b1SX6c5tiu6r0ZHG3ixj-21" value="&lt;font style=&quot;font-size: 18px;&quot;&gt;LAN&lt;/font&gt;" style="text;html=1;align=center;verticalAlign=middle;whiteSpace=wrap;rounded=0;" vertex="1" parent="1">
          <mxGeometry x="770" y="370" width="40" height="30" as="geometry" />
        </mxCell>
        <mxCell id="b1SX6c5tiu6r0ZHG3ixj-24" value="&lt;div&gt;&lt;font style=&quot;font-size: 14px;&quot;&gt;&lt;b&gt;VPN Gateway als Client Software&lt;/b&gt;&lt;/font&gt;&lt;/div&gt;linux-cleint-01&lt;div&gt;10.10.10.5/24&lt;/div&gt;" style="rounded=0;whiteSpace=wrap;html=1;" vertex="1" parent="1">
          <mxGeometry x="45" y="470" width="125" height="70" as="geometry" />
        </mxCell>
        <mxCell id="b1SX6c5tiu6r0ZHG3ixj-26" value="" style="endArrow=none;html=1;rounded=0;exitX=1;exitY=0.5;exitDx=0;exitDy=0;entryX=0;entryY=0.5;entryDx=0;entryDy=0;strokeWidth=5;strokeColor=#FF6842;" edge="1" parent="1" source="b1SX6c5tiu6r0ZHG3ixj-1" target="b1SX6c5tiu6r0ZHG3ixj-2">
          <mxGeometry width="50" height="50" relative="1" as="geometry">
            <mxPoint x="490" y="480" as="sourcePoint" />
            <mxPoint x="540" y="430" as="targetPoint" />
          </mxGeometry>
        </mxCell>
        <mxCell id="b1SX6c5tiu6r0ZHG3ixj-27" value="" style="endArrow=none;html=1;rounded=0;exitX=1;exitY=0.5;exitDx=0;exitDy=0;entryX=0;entryY=0.5;entryDx=0;entryDy=0;strokeWidth=5;strokeColor=#FF6842;" edge="1" parent="1">
          <mxGeometry width="50" height="50" relative="1" as="geometry">
            <mxPoint x="141" y="430" as="sourcePoint" />
            <mxPoint x="590" y="430" as="targetPoint" />
          </mxGeometry>
        </mxCell>
      </root>
    </mxGraphModel>
  </diagram>
</mxfile>
